o Circle
v 0.000000 0.000000 -1.500000
v -0.750000 0.000000 -1.299038
v -1.299038 0.000000 -0.750000
v -1.500000 0.000000 0.000000
v -1.299038 0.000000 0.750000
v -0.750000 0.000000 1.299038
v -0.000000 0.000000 1.500000
v 0.750000 0.000000 1.299038
v 1.299038 0.000000 0.750000
v 1.500000 0.000000 0.000001
v 1.299039 0.000000 -0.749999
v 0.750001 0.000000 -1.299038
v 0.000000 0.000000 0.000000
vn 0.0000 1.0000 0.0000
s off
f 10//1 13//1 9//1
f 7//1 13//1 6//1
f 4//1 13//1 3//1
f 11//1 13//1 10//1
f 8//1 13//1 7//1
f 5//1 13//1 4//1
f 12//1 13//1 11//1
f 2//1 13//1 1//1
f 9//1 13//1 8//1
f 6//1 13//1 5//1
f 1//1 13//1 12//1
f 3//1 13//1 2//1
