# Blender v2.79 (sub 0) OBJ File: 'Shield.blend'
# www.blender.org
mtllib Shield.mtl
o Circle
v -1.000000 0.000000 -1.732051
v -2.000000 0.000000 0.000000
v -1.000000 0.000000 1.732051
v 1.000000 0.000000 1.732051
v 2.000000 0.000000 -0.000000
v 1.000000 0.000000 -1.732051
v -0.856863 0.972773 -1.484130
v -1.713726 0.972773 0.000000
v -0.856863 0.972773 1.484130
v 0.856863 0.972773 1.484130
v 1.713726 0.972773 -0.000000
v 0.856863 0.972773 -1.484130
v -0.648818 1.498212 -1.123786
v -1.297636 1.498212 0.000000
v -0.648818 1.498212 1.123786
v 0.648818 1.498212 1.123786
v 1.297636 1.498212 -0.000000
v 0.648818 1.498212 -1.123785
v -0.375108 1.839037 -0.649705
v -0.750215 1.839037 0.000000
v -0.375108 1.839037 0.649706
v 0.375108 1.839037 0.649705
v 0.750215 1.839037 -0.000000
v 0.375108 1.839037 -0.649705
v -0.160470 1.969159 -0.277943
v -0.320941 1.969159 0.000000
v -0.160470 1.969159 0.277943
v 0.160471 1.969159 0.277943
v 0.320941 1.969159 0.000000
v 0.160471 1.969159 -0.277943
v 0.000000 2.003933 0.000000
v -1.889235 0.518768 0.000000
v -0.944617 0.518768 1.636126
v 1.889235 0.518768 -0.000000
v 0.944618 0.518768 -1.636125
v 0.944618 0.518768 1.636125
v -0.944618 0.518768 -1.636125
vt 0.271078 0.367552
vt 0.292076 0.476183
vt 0.087052 0.476183
vt 0.045057 0.367552
vt 0.723120 0.367552
vt 0.702123 0.476183
vt 0.907146 0.476183
vt 0.949141 0.367552
vt 0.723120 0.367552
vt 0.702123 0.476183
vt 0.292076 0.476183
vt 0.271078 0.367552
vt 0.341855 0.601906
vt 0.652343 0.601906
vt 0.807588 0.601906
vt 0.652343 0.601906
vt 0.341855 0.601906
vt 0.186611 0.601906
vt 0.586852 0.683456
vt 0.676605 0.683456
vt 0.586852 0.683456
vt 0.407346 0.683456
vt 0.317593 0.683456
vt 0.407346 0.683456
vt 0.458703 0.714590
vt 0.535495 0.714590
vt 0.573891 0.714590
vt 0.535495 0.714590
vt 0.458703 0.714590
vt 0.420307 0.714590
vt 0.497099 0.722911
vt 0.975644 0.243425
vt 0.736371 0.243425
vt 0.257827 0.243425
vt 0.736371 0.243425
vt 0.018554 0.243425
vt 0.257827 0.243425
vn -0.4801 0.2789 0.8317
vn -0.4395 0.4766 0.7613
vn -0.8791 0.4766 0.0000
vn -0.9603 0.2789 0.0000
vn 0.4801 0.2789 -0.8317
vn 0.4395 0.4766 -0.7613
vn 0.8791 0.4766 0.0000
vn 0.9603 0.2789 0.0000
vn 0.4801 0.2789 0.8317
vn 0.4395 0.4766 0.7613
vn -0.4395 0.4766 -0.7613
vn -0.4801 0.2789 -0.8317
vn -0.3475 0.7190 -0.6018
vn 0.3475 0.7190 -0.6018
vn 0.6949 0.7190 0.0000
vn 0.3475 0.7190 0.6018
vn -0.3475 0.7190 0.6018
vn -0.6949 0.7190 0.0000
vn 0.2237 0.8943 -0.3875
vn 0.4474 0.8943 0.0000
vn 0.2237 0.8943 0.3875
vn -0.2237 0.8943 0.3875
vn -0.4474 0.8943 0.0000
vn -0.2237 0.8943 -0.3875
vn -0.1145 0.9734 -0.1984
vn 0.1145 0.9734 -0.1984
vn 0.2291 0.9734 0.0000
vn 0.1145 0.9734 0.1984
vn -0.1145 0.9734 0.1984
vn -0.2291 0.9734 0.0000
vn 0.0000 1.0000 0.0000
vn 0.9779 0.2088 0.0000
vn 0.4890 0.2088 0.8469
vn -0.4890 0.2088 -0.8469
vn 0.4890 0.2088 -0.8469
vn -0.9779 0.2088 0.0000
vn -0.4890 0.2088 0.8469
usemtl None
s 1
f 33/1/1 9/2/2 8/3/3 32/4/4
f 35/5/5 12/6/6 11/7/7 34/8/8
f 36/9/9 10/10/10 9/2/2 33/1/1
f 32/4/4 8/3/3 7/11/11 37/12/12
f 37/12/12 7/11/11 12/6/6 35/5/5
f 34/8/8 11/7/7 10/10/10 36/9/9
f 7/11/11 13/13/13 18/14/14 12/6/6
f 11/7/7 17/15/15 16/16/16 10/10/10
f 9/2/2 15/17/17 14/18/18 8/3/3
f 12/6/6 18/14/14 17/15/15 11/7/7
f 10/10/10 16/16/16 15/17/17 9/2/2
f 8/3/3 14/18/18 13/13/13 7/11/11
f 18/14/14 24/19/19 23/20/20 17/15/15
f 16/16/16 22/21/21 21/22/22 15/17/17
f 14/18/18 20/23/23 19/24/24 13/13/13
f 13/13/13 19/24/24 24/19/19 18/14/14
f 17/15/15 23/20/20 22/21/21 16/16/16
f 15/17/17 21/22/22 20/23/23 14/18/18
f 19/24/24 25/25/25 30/26/26 24/19/19
f 23/20/20 29/27/27 28/28/28 22/21/21
f 21/22/22 27/29/29 26/30/30 20/23/23
f 24/19/19 30/26/26 29/27/27 23/20/20
f 22/21/21 28/28/28 27/29/29 21/22/22
f 20/23/23 26/30/30 25/25/25 19/24/24
f 30/26/26 31/31/31 29/27/27
f 28/28/28 31/31/31 27/29/29
f 26/30/30 31/31/31 25/25/25
f 25/25/25 31/31/31 30/26/26
f 29/27/27 31/31/31 28/28/28
f 27/29/29 31/31/31 26/30/30
f 5/32/32 34/8/8 36/9/9 4/33/33
f 1/34/34 37/12/12 35/5/5 6/35/35
f 2/36/36 32/4/4 37/12/12 1/34/34
f 4/33/33 36/9/9 33/1/1 3/37/37
f 6/35/35 35/5/5 34/8/8 5/32/32
f 3/37/37 33/1/1 32/4/4 2/36/36
