# Blender v2.79 (sub 0) OBJ File: 'Tile_FullCover.blend'
# www.blender.org
mtllib Tile_FullCover.mtl
o Circle
v 2.000000 -0.000000 -0.000000
v 1.000000 -0.000000 1.732051
v -1.000000 0.000000 1.732051
v -2.000000 0.000000 -0.000000
v -1.000000 0.000000 -1.732051
v 1.000000 -0.000000 -1.732051
v -0.000000 0.000000 -0.000000
v 2.000000 4.000000 -0.000000
v 1.000000 4.000000 1.732051
v -1.000000 4.000000 1.732051
v -2.000000 4.000000 -0.000000
v -1.000000 4.000000 -1.732051
v 1.000000 4.000000 -1.732051
v 2.000000 3.599999 -0.000000
v 1.000000 3.600000 1.732051
v 1.000000 3.600000 -1.732051
v -2.000000 3.600000 -0.000000
v -1.000000 3.600000 -1.732051
v -1.000000 3.600000 1.732051
v 0.900000 4.000000 1.558846
v 1.800000 4.000000 -0.000000
v -0.900000 4.000000 1.558846
v -1.800000 4.000000 -0.000000
v -0.900000 4.000000 -1.558846
v 0.900000 4.000000 -1.558846
v 0.000000 4.000000 -0.000000
vt 0.963904 0.687087
vt 0.868034 0.635445
vt 0.963904 0.583802
vt 0.868034 0.532159
vt 0.772164 0.583802
vt 0.772164 0.687087
vt 0.868034 0.738730
vt 0.472664 0.470501
vt 0.472664 0.375000
vt 0.472664 0.375000
vt 0.472664 0.470501
vt 0.370306 0.470501
vt 0.165592 0.470501
vt 0.165592 0.470501
vt 0.370306 0.470501
vt 0.472664 0.183999
vt 0.472664 0.088498
vt 0.472664 0.088498
vt 0.472664 0.183999
vt 0.063235 0.470501
vt 0.063235 0.470501
vt 0.472664 0.470501
vt 0.472664 0.470501
vt 0.267949 0.375000
vt 0.267949 0.470501
vt 0.267949 0.183999
vt 0.370306 0.661502
vt 0.472664 0.661502
vt 0.063235 0.661502
vt 0.165592 0.661502
vt 0.267949 0.088498
vt 0.606112 0.945301
vt 0.716813 0.842016
vt 0.716813 0.945301
vt 0.550761 0.532159
vt 0.661463 0.583802
vt 0.550761 0.583802
vt 0.550761 0.842016
vt 0.606112 0.842016
vt 0.772164 0.945301
vt 0.772164 0.842016
vt 0.661463 0.687087
vt 0.550761 0.687087
vt 0.661463 0.738730
vt 0.550761 0.738730
vt 0.661463 0.532159
vt 0.550761 0.945301
vt 0.963904 0.790373
vt 0.963904 0.893659
vt 0.868034 0.842016
vt 0.868034 0.945301
vt 0.772164 0.893659
vt 0.772164 0.790373
vt 0.868034 0.738730
vn -0.0000 -1.0000 0.0000
vn 0.0000 1.0000 0.0000
vn 0.8660 0.0000 0.5000
vn 0.8660 0.0000 -0.5000
vn -0.8660 0.0000 -0.5000
vn 0.0000 0.0000 1.0000
vn 0.0000 0.0000 -1.0000
vn -0.8660 -0.0000 0.5000
usemtl None
s off
f 1/1/1 7/2/1 6/3/1
f 5/4/1 7/2/1 4/5/1
f 3/6/1 7/2/1 2/7/1
f 6/3/1 7/2/1 5/4/1
f 4/5/1 7/2/1 3/6/1
f 2/7/1 7/2/1 1/1/1
f 9/8/2 8/9/2 21/10/2 20/11/2
f 11/12/2 10/13/2 22/14/2 23/15/2
f 13/16/2 12/17/2 24/18/2 25/19/2
f 10/13/2 9/20/2 20/21/2 22/14/2
f 12/22/2 11/12/2 23/15/2 24/23/2
f 8/9/2 13/16/2 25/19/2 21/10/2
f 14/24/3 9/8/3 15/25/3
f 16/26/4 8/9/4 14/24/4
f 17/27/5 12/22/5 18/28/5
f 15/29/6 10/13/6 19/30/6
f 18/31/7 13/16/7 16/26/7
f 19/30/8 11/12/8 17/27/8
f 3/32/8 17/33/8 4/34/8
f 5/35/7 16/36/7 6/37/7
f 3/32/6 15/38/6 19/39/6
f 5/40/5 17/33/5 18/41/5
f 6/37/4 14/42/4 1/43/4
f 1/43/3 15/44/3 2/45/3
f 14/24/3 8/9/3 9/8/3
f 16/26/4 13/16/4 8/9/4
f 17/27/5 11/12/5 12/22/5
f 15/29/6 9/20/6 10/13/6
f 18/31/7 12/17/7 13/16/7
f 19/30/8 10/13/8 11/12/8
f 3/32/8 19/39/8 17/33/8
f 5/35/7 18/46/7 16/36/7
f 3/32/6 2/47/6 15/38/6
f 5/40/5 4/34/5 17/33/5
f 6/37/4 16/36/4 14/42/4
f 1/43/3 14/42/3 15/44/3
f 21/48/2 25/49/2 26/50/2
f 24/51/2 23/52/2 26/50/2
f 22/53/2 20/54/2 26/50/2
f 25/49/2 24/51/2 26/50/2
f 23/52/2 22/53/2 26/50/2
f 20/54/2 21/48/2 26/50/2
